<?xml version="1.0" encoding="utf-8"?>
<!-- Generator: Adobe Illustrator 16.0.3, SVG Export Plug-In . SVG Version: 6.00 Build 0)  -->
<!DOCTYPE svg PUBLIC "-//W3C//DTD SVG 1.1//EN" "http://www.w3.org/Graphics/SVG/1.1/DTD/svg11.dtd">
<svg version="1.1" id="Layer_1" xmlns="http://www.w3.org/2000/svg" xmlns:xlink="http://www.w3.org/1999/xlink" x="0px" y="0px"
	 width="470.245px" height="467.601px" viewBox="0 0 470.245 467.601" enable-background="new 0 0 470.245 467.601"
	 xml:space="preserve">
<g>
	<path fill-rule="evenodd" clip-rule="evenodd" fill="#F1F2F2" d="M-0.5,374.827c1.5-21.834,3.224-30.926,10.548-44.807
		c9.125-17.291,22.561-29.725,37.559-41.186c6.362-4.863,13.006-9.432,18.894-14.82c7.653-7.004,7.698-12.893,1.78-21.51
		c-2.967-4.32-5.951-8.771-7.984-13.563c-4.592-10.828,2.102-27.389,12.676-32.557c4.521-2.209,10.941,2.166,11.2,8.1
		c0.175,4.01-0.414,8.094-1.033,12.088c-0.848,5.469,0.271,10.518,2.797,15.264c1.801,3.385,3.939,6.596,6.008,9.832
		c5.685,8.891,5.237,16.787-1.91,24.646c-4.721,5.191-10.08,9.805-14.758,15.029c-11.537,12.885-21.98,26.588-28.904,42.59
		c-6.903,15.953-8.197,32.375-3.744,49.293c2.708,10.289,6.206,20.094,12.738,28.689c2.537,3.336,4.604,7.287,2.007,11.58
		c-2.794,4.619-7.179,7.174-12.49,6.26c-5.015-0.863-10.088-2.326-14.682-4.49c-8.345-3.928-15.397-9.736-20.754-17.354
		c-1.694-2.408-3.422-4.994-4.333-7.701C2.25,391.702,0.042,386.813-0.5,374.827z"/>
	<path fill-rule="evenodd" clip-rule="evenodd" fill="#F1F2F2" d="M369.208,154.701c-0.5,8-0.907,10.86-2,16.5
		c-1.709,8.822,0.21,14.47,8.696,17.603c7.105,2.623,14.309,4.982,21.496,7.375c57.483,19.144,77.811,84.051,71.062,139.058
		c-8.839,72.025-62.399,125.544-135.22,128.899c-44.406,2.046-88.085-8.421-124.373-34.701
		c-24.623-17.832-49.66-45.79-80.612-51.063c-5.617-0.957-11.301-2.049-16.64-3.961c-4.344-1.555-8.552-3.992-12.211-6.824
		c-4.007-3.102-4.448-6.742-1.804-11.156c5.483-9.156,13.745-14.676,24.138-16.766c9.331-1.877,17.997,0.285,26.349,4.721
		c13.539,7.189,23.885,17.807,32.876,29.898c27.854,37.457,71.513,49.583,116.106,54.344c33.624,3.59,70.728-9.027,90.657-36.755
		c18.126-25.218,27.273-60.55,16.911-90.575c-4.987-14.449-15.971-34.633-28.083-44.354c-12.434-9.979-27.461-15.967-42.836-19.717
		c-26.52-6.471-51.777-9.383-78.854-4.439c-15.67,2.861-28.793,11.002-38.669,23.762c-4.832,6.242-9.368,12.717-13.986,19.123
		c-4.843,6.721-4.985,9.672,0.653,15.645c8.214,8.701,16.729,17.131,25.378,25.404c4.834,4.625,9.889,2.617,11.463-3.973
		c0.727-3.041,1.424-6.32,3.102-8.852c3.26-4.922,9.113-5.666,13.406-1.619c2.783,2.625,5.49,5.961,6.701,9.502
		c3.025,8.842,3.666,18.055,1.283,27.264c-1.387,5.355-4.189,9.877-8.344,13.549c-6.412,5.668-13.793,7.414-21.313,3.232
		c-10.928-6.074-21.76-12.447-32.006-19.59c-20.047-13.977-41.586-23.572-66.187-25.605c-8.504-0.703-16.934-0.533-25.207,1.566
		c-14.486,3.676-24.062,12.799-28.343,27.064c-1.79,5.963-2.611,12.221-3.81,18.355c-0.714,3.656-1.482,7.734-5.75,8.287
		c-3.901,0.506-6.222-2.879-7.924-5.961c-3.447-6.238-3.465-13.123-2.742-19.93c1.55-14.59,7.558-27.289,17.71-37.791
		c8.001-8.277,16.401-16.182,24.875-23.98c12.437-11.445,1.769-18.233-4.043-29.838c-3.098-6.187-5.674-12.63-7.159-19.404
		c-2.947-13.441-1.764-27.712,4.277-40.16c5.283-10.884,13.859-19.106,23.957-25.542c9.135-5.822,22.734-6.914,29.33-16.254
		c7.888-11.173,2.297-29.228,3.173-41.987c0.98-14.274,3.319-28.597,8.606-41.954c12.353-31.208,34.444-57.229,68.802-62.657
		c11.115-1.756,22.344-1.827,33.518-0.424c3.34,0.419,6.732,1.247,9.842,2.517c16.588,6.773,31.051,16.533,43.365,29.751
		c11.697,12.554,21.75,26.203,30.031,41.137c4.41,7.952,8.373,16.209,11.779,24.636c1.939,4.797,3.767,9.325,5.069,14.408
		c1.369,5.349,2.098,9.849,2.834,15.313c0.959,7.109,0.44,8.917,0.917,16.083C369.559,145.381,369.31,153.079,369.208,154.701z
		 M175.642,130.946c0.59,4.593,1.515,9.143,2.773,13.601c6.075,21.527,17.522,48.565,40.228,56.846
		c12.006,4.378,29.754,3.69,41.712-0.792c56.008-20.994,47.121-117.6,3.104-146.311c-10.923-7.124-23.398-8.807-35.945-5.506
		c-17.756,4.671-35.368,12.803-43.646,29.95C176.071,94.883,173.365,113.232,175.642,130.946z M131.511,233.567
		c0.439,5.756,1.896,11.465,4.081,16.71c10.433,25.052,36.584,34.03,59.626,17.733c33.664-23.81,11.929-80.849-28.583-79.199
		c-11.443,0.467-26.667,14.073-31.411,23.717C132.008,219.068,130.96,226.354,131.511,233.567z"/>
</g>
</svg>
