<?xml version="1.0" encoding="utf-8"?>
<!-- Generator: Adobe Illustrator 16.0.3, SVG Export Plug-In . SVG Version: 6.00 Build 0)  -->
<!DOCTYPE svg PUBLIC "-//W3C//DTD SVG 1.1//EN" "http://www.w3.org/Graphics/SVG/1.1/DTD/svg11.dtd">
<svg version="1.1" id="Layer_1" xmlns="http://www.w3.org/2000/svg" xmlns:xlink="http://www.w3.org/1999/xlink" x="0px" y="0px"
	 width="470.245px" height="467.601px" viewBox="0 0 470.245 467.601" enable-background="new 0 0 470.245 467.601"
	 xml:space="preserve">
<g>
	<path fill-rule="evenodd" clip-rule="evenodd" d="M-0.5,374.827c1.5-21.834,3.224-30.926,10.548-44.807
		c9.125-17.291,22.561-29.725,37.559-41.186c6.362-4.863,13.006-9.432,18.894-14.82c7.653-7.004,7.698-12.893,1.78-21.51
		c-2.967-4.32-5.951-8.771-7.984-13.563c-4.592-10.828,2.102-27.389,12.676-32.557c4.521-2.209,10.941,2.166,11.2,8.1
		c0.175,4.01-0.414,8.094-1.033,12.088c-0.848,5.469,0.271,10.518,2.797,15.264c1.801,3.385,3.939,6.596,6.008,9.832
		c5.685,8.891,5.237,16.787-1.91,24.646c-4.721,5.191-10.08,9.805-14.758,15.029c-11.537,12.885-21.98,26.588-28.904,42.59
		c-6.903,15.953-8.197,32.375-3.744,49.293c2.708,10.289,6.206,20.094,12.738,28.689c2.537,3.336,4.604,7.287,2.007,11.58
		c-2.794,4.619-7.179,7.174-12.49,6.26c-5.015-0.863-10.088-2.326-14.682-4.49c-8.345-3.928-15.397-9.736-20.754-17.354
		c-1.694-2.408-3.422-4.994-4.333-7.701C2.25,391.702,0.042,386.813-0.5,374.827z"/>
	<path fill-rule="evenodd" clip-rule="evenodd" d="M369.208,154.701c-0.5,8-0.907,10.86-2,16.5
		c-1.709,8.822,0.21,14.47,8.696,17.603c7.105,2.623,14.309,4.982,21.496,7.375c19.752,6.578,35.404,18.712,47.584,35.392
		c4.281,5.863,7.984,12.154,10.902,18.805c3.025,6.896,5.059,13.736,7.068,21.307c3.941,14.836,7.295,28.104,6.727,43.48
		c-0.393,10.65-0.072,21.309-2.699,31.77c-4.887,19.461-10.807,38.539-21.945,55.475c-17.959,27.305-42.553,46.145-73.531,56.576
		c-2.785,0.938-5.74,1.453-8.658,1.91c-12.145,1.902-24.279,3.912-36.471,5.447c-4.861,0.613-9.863,0.102-14.801,0.102
		c-0.063,0.348-55.48-6.891-80.285-21.861c-15.22-9.186-29.107-20.027-43.105-30.828c-10.949-8.447-22.05-16.699-33.17-24.92
		c-7.953-5.879-17.08-8.814-26.758-10.461c-5.617-0.957-11.301-2.049-16.64-3.961c-4.344-1.555-8.552-3.992-12.211-6.824
		c-4.007-3.102-4.448-6.742-1.804-11.156c5.483-9.156,13.745-14.676,24.138-16.766c9.331-1.877,17.997,0.285,26.349,4.721
		c13.539,7.189,23.885,17.807,32.876,29.898c7.996,10.754,16.974,20.52,28.221,27.881c15.627,10.23,32.596,14.051,50.334,19.156
		c13.863,3.992,28.068,7.127,42.496,8.053c26.754,1.717,53.475-5.15,73.465-23.666c40.402-37.418,46.154-112.588,1.076-148.764
		c-12.434-9.979-27.461-15.967-42.836-19.717c-26.52-6.471-51.777-9.383-78.854-4.439c-15.67,2.861-28.793,11.002-38.669,23.762
		c-4.832,6.242-9.368,12.717-13.986,19.123c-4.843,6.721-4.985,9.672,0.653,15.645c8.214,8.701,16.729,17.131,25.378,25.404
		c4.834,4.625,9.889,2.617,11.463-3.973c0.727-3.041,1.424-6.32,3.102-8.852c3.26-4.922,9.113-5.666,13.406-1.619
		c2.783,2.625,5.49,5.961,6.701,9.502c3.025,8.842,3.666,18.055,1.283,27.264c-1.387,5.355-4.189,9.877-8.344,13.549
		c-6.412,5.668-13.793,7.414-21.313,3.232c-10.928-6.074-21.76-12.447-32.006-19.59c-20.047-13.977-41.586-23.572-66.187-25.605
		c-8.504-0.703-16.934-0.533-25.207,1.566c-14.486,3.676-24.062,12.799-28.343,27.064c-1.79,5.963-2.611,12.221-3.81,18.355
		c-0.714,3.656-1.482,7.734-5.75,8.287c-3.901,0.506-6.222-2.879-7.924-5.961c-3.447-6.238-3.465-13.123-2.742-19.93
		c1.55-14.59,7.558-27.289,17.71-37.791c8.001-8.277,16.402-16.182,24.876-23.98c7.443-6.85,8.61-11.721,2.724-20.047
		c-5.713-8.08-9.77-16.889-13.494-25.938c-2.704-6.572-3.244-13.354-2.412-20.371c1.384-11.674,5.307-22.346,12.133-31.923
		c8.731-12.251,18.686-19.715,32.93-23.928c2.958-0.875,7.933-3.726,10.5-5.083c6.846-3.621,7.371-7.356,7.167-15.042
		c-0.193-7.279-0.419-7.583-0.613-14.959c-0.205-7.805,0.021-15.491,1.174-23.137c2.044-13.551,4.204-27.24,10.094-39.739
		c7.467-15.843,17.75-30.7,30.789-42.463c10.137-9.145,22.769-13.083,35.953-15.166c11.115-1.756,22.344-1.827,33.518-0.424
		c3.34,0.419,6.732,1.247,9.842,2.517c16.588,6.773,31.051,16.533,43.365,29.751c11.697,12.554,21.75,26.203,30.031,41.137
		c4.41,7.952,8.373,16.209,11.779,24.636c1.939,4.797,3.767,9.325,5.069,14.408c1.369,5.349,2.098,9.849,2.834,15.313
		c0.959,7.109,0.44,8.917,0.917,16.083C369.559,145.381,369.31,153.079,369.208,154.701z M173.689,131.182
		c-0.206,6.326-0.069,12.307,2.123,18.529c2.401,6.817,6.661,12.959,11.278,18.452c8.458,10.06,17.773,19.399,26.706,29.061
		c4.663,5.044,10.297,8.299,17.233,8.602c5.477,0.239,10.989,0.227,16.459-0.11c7.269-0.447,14.31-2.37,19.677-7.44
		c5.639-5.323,11.56-10.762,15.652-17.229c13.389-21.153,19.202-44.078,13.637-69.164c-2.986-13.464-6.274-26.693-14.765-38.062
		c-11.226-15.031-24.189-26.93-44.26-28.075c-17.046-0.972-31.568,3.753-42.939,17.033c-4.509,5.266-8.215,11.21-11.262,17.428
		c-3.006,6.133-6.037,12.578-7.171,19.358c-0.688,4.116-0.879,8.297-1.375,12.437c-0.61,5.083-0.625,10.227-0.841,15.34
		C173.786,128.639,173.73,129.917,173.689,131.182z M130.812,233.616c0.389,3.707,0.574,7.449,1.203,11.115
		c2.341,13.639,10.884,27.922,29.401,30.236c4.792,0.6,9.555,1.504,14.361,1.902c6.213,0.516,12.095-0.717,16.883-5.025
		c8.362-7.523,14.001-16.91,17.52-27.467c2.528-7.584,2.498-15.432-0.533-22.941c-4.294-10.643-10.234-20.17-19.852-26.921
		c-11.554-8.11-23.451-9.617-36.082-2.274C137.772,201.507,130.864,215.565,130.812,233.616z"/>
</g>
</svg>
